<?xml version="1.0" encoding="utf-8"?>
<svg xmlns="http://www.w3.org/2000/svg" height="512" width="512" viewBox="0 0 512 512">
  <g>
    <path id="path1" transform="rotate(0,256,256) translate(0.00784277543081657,0) scale(15.9995060119561,15.9995060119561)  " fill="#000000" d="M20.000007,24.000984L22.000007,24.000984 22.000007,28.000984C22.000007,28.553963,21.551993,29.000984,21.000007,29.000984L13.000007,29.000984 13.000007,27.000984 20.000007,27.000984z M7.0000114,13.000998L9.0000114,13.000998 9.0000114,18.000999 7.0000114,18.000999z M24.999863,11.538288L24.999863,14.00123C24.999863,14.554217,24.551869,15.001206,23.999878,15.001206L17.999969,15.001206 17.999969,18.001137 23.999878,18.001137C24.551869,18.001137,24.999863,18.448126,24.999863,19.001113L24.999863,21.464056 29.631791,16.501172z M23.99977,8.0009975C24.271237,8.0013466,24.537683,8.1121178,24.730866,8.3183632L31.73076,15.818188C32.089755,16.203179,32.089755,16.799165,31.73076,17.184156L24.730866,24.683981C24.537869,24.889976 24.270874,25.000974 23.999878,25.000974 23.87588,25.000974 23.751882,24.978974 23.632883,24.931975 23.25089,24.779979 22.999893,24.411987 22.999893,24.000997L22.999893,20.001091 16.999985,20.001091C16.447993,20.00109,16,19.554101,16,19.001113L16,14.00123C16,13.448243,16.447993,13.001253,16.999985,13.001253L22.999893,13.001253 22.999893,9.0013466C22.999893,8.5903568 23.25089,8.2223654 23.632883,8.0703688 23.751944,8.0234947 23.876376,8.0008392 23.99977,8.0009975z M11,2.4285431L2,5.700592 2,26.300902 11,29.572951z M12.011637,7.0571899E-05C12.210094,0.0024433136 12.4065,0.064632416 12.574,0.18150902 12.841,0.3685112 13,0.67451668 13,1.0005207L13,3.0009727 21,3.0009727C21.552,3.0009727,22,3.4479733,22,4.0009727L22,8.0009727 20,8.0009727 20,5.0009727 13,5.0009727 13,31.000972C13,31.326977 12.841,31.632982 12.574,31.820984 12.403,31.939986 12.203,32.000987 12,32.000987 11.885,32.000987 11.77,31.981987 11.658,31.940986L0.65799999,27.940926C0.26299953,27.796924,0,27.421918,0,27.000912L0,5.0005817C0,4.5795746,0.26299953,4.2045689,0.65799999,4.0615673L11.658,0.061506271C11.77275,0.018756866,11.892563,-0.0013542175,12.011637,7.0571899E-05z" />
  </g>
</svg>

