<?xml version="1.0" encoding="utf-8"?>
<svg xmlns="http://www.w3.org/2000/svg" height="512" width="512" viewBox="0 0 512 512">
  <g>
    <path id="path1" transform="rotate(0,256,256) translate(0.000106811529803963,0) scale(16.0000009536744,16.0000009536744)  " fill="#000000" d="M21.170904,20.171999C21.426796,20.171999,21.682809,20.269743,21.878318,20.465232L23.999967,22.586675 26.121605,20.465232C26.512622,20.074255 27.145689,20.074255 27.535699,20.465232 27.926715,20.855232 27.926715,21.488204 27.535699,21.87918L25.414057,24.000627 27.535699,26.122063C27.926715,26.513039 27.926715,27.145034 27.535699,27.536011 27.340679,27.731011 27.08465,27.828969 26.828652,27.828969 26.572624,27.828969 26.316595,27.731011 26.121605,27.536011L23.999971,25.414583 21.878348,27.536011C21.683328,27.731011 21.4273,27.828969 21.171302,27.828969 20.915273,27.828969 20.659244,27.731011 20.464255,27.536011 20.073208,27.145034 20.073208,26.513039 20.464255,26.122063L22.585881,24.000631 20.464224,21.87918C20.073208,21.488204 20.073208,20.855232 20.464224,20.465232 20.659244,20.269743 20.915013,20.171999 21.170904,20.171999z M6.000001,19.999999L13,19.999999C13.552001,19.999999 14,20.447999 14,20.999999 14,21.551999 13.552001,21.999999 13,21.999999L6.000001,21.999999C5.4480009,21.999999 5.000001,21.551999 5.000001,20.999999 5.000001,20.447999 5.4480009,19.999999 6.000001,19.999999z M23.985995,18C20.669999,17.999999 17.971003,20.690999 17.971003,23.999999 17.971003,27.308999 20.669999,29.999999 23.985995,29.999999 27.30199,29.999999 29.999987,27.308999 29.999987,23.999999 29.999987,20.690999 27.30199,17.999999 23.985995,18z M6.000001,15.999999L15,15.999999C15.552001,15.999999 16,16.447999 16,17 16,17.551999 15.552001,17.999999 15,18L6.000001,18C5.4480009,17.999999 5.000001,17.551999 5.000001,17 5.000001,16.447999 5.4480009,15.999999 6.000001,15.999999z M6.000001,11.999999L18,11.999999C18.552001,11.999999 19.000001,12.447999 19.000001,12.999999 19.000001,13.551999 18.552001,13.999999 18,13.999999L6.000001,13.999999C5.4480009,13.999999 5.000001,13.551999 5.000001,12.999999 5.000001,12.447999 5.4480009,11.999999 6.000001,11.999999z M17,3.4139996L17,7.0319901 20.617991,7.0319901z M2,2L2,29.999999 18.693327,29.999999 18.599899,29.919196C16.985891,28.454697 15.971006,26.343343 15.971006,23.999999 15.971006,20.278218 18.531045,17.14163 21.985448,16.25231L22.000001,16.248949 22.000001,9.0319881 15,9.0319881 15,2z M2,0L16.414001,0 24.000001,7.5859995 24.000001,16.000176 24.192521,16.002617C28.516454,16.112356 31.999984,19.657921 31.999984,23.999999 31.999984,28.342077 28.516454,31.887642 24.192521,31.997381L24.000001,31.999822 23.985995,31.999999 2,31.999999C0.89700127,31.999999,0,31.102999,0,29.999999L0,2C0,0.89699936,0.89700127,0,2,0z" />
  </g>
</svg>

