<?xml version="1.0" encoding="utf-8"?>
<svg xmlns="http://www.w3.org/2000/svg" height="512" width="512" viewBox="0 0 512 512">
  <g>
    <path id="path1" transform="rotate(0,256,256) translate(48.0001640318651,0) scale(15.9999885559164,15.9999885559164)  " fill="#000000" d="M5.0000002,20.000021L16,20.000021 16,22.000021 5.0000002,22.000021z M5.0000002,16.000022L16,16.000022 16,18.000021 5.0000002,18.000021z M5.0000002,12.000022L16,12.000022 16,14.000022 5.0000002,14.000022z M20.999999,7.0000219L20.999999,25C20.999999,26.102999,20.103,27,18.999999,27L7.0000002,27 7.0000002,30.000021 23.999999,30.000021 23.999999,7.0000219z M7.023392,3.3906083L3.4139419,7.0000582 7.0050085,7.0000582z M9.0305388,1.9999999L8.9949973,9.0000544 1.9999999,9.0000544 1.9999999,25 19.001001,25 18.999999,1.9999999z M7.5860002,0L18.999999,0C20.103,0,20.999999,0.897,20.999999,1.9999999L20.999999,5.0000219 23.999999,5.0000219C25.103,5.0000222,25.999999,5.8970222,25.999999,7.0000219L25.999999,30.000021C25.999999,31.103022,25.103,32.000021,23.999999,32.000021L7.0000002,32.000021C5.8970001,32.000021,5.0000002,31.103022,5.0000002,30.000021L5.0000002,27 1.9999999,27C0.89700021,27,2.3841858E-07,26.102999,0,25L0,7.586z" />
  </g>
</svg>

